<svg xmlns="http://www.w3.org/2000/svg" fill-rule="evenodd" viewBox="0 0 250 250">
  <path d="M162.55 12.01c15.07 1.75 28.28 4.65 37.67 8.97 0 0 32.98 14.75 32.98 65.08 0 0 .41 37.14-4.6 62.92-3.18 16.37-28.49 34.28-57.56 37.75-15.16 1.81-30.09 3.47-46 2.74-26.03-1.19-46.57-6.21-46.57-6.21 0 2.53.16 4.94.47 7.2 3.39 25.68 25.47 27.22 46.39 27.94 21.12.72 39.92-5.21 39.92-5.21l.87 19.1s-14.77 7.93-41.08 9.38c-14.51.8-32.52-.36-53.51-5.91C26.03 223.71 18.2 175.2 17 125.98c-.36-14.61-.14-28.39-.14-39.92 0-50.33 32.98-65.08 32.98-65.08C66.46 13.34 95 10.13 124.66 9.89h.73c6.31.05 12.58.24 18.7.57v51.68C132.98 65.98 125 76.52 125 88.92c0 9.21 4.41 17.4 11.23 22.58l-20.39 31.29c-2.1.1-4.13 1.17-5.37 3.07-2.04 3.13-1.15 7.34 1.98 9.38 3.13 2.04 7.34 1.15 9.38-1.98 1.23-1.9 1.4-4.18.64-6.15l20.69-31.75c3.16 1.21 6.58 1.88 10.16 1.88 15.63 0 28.32-12.69 28.32-28.32 0-12.4-7.98-22.94-19.09-26.78V12.01zM62.51 73.87c0-7.33 5.94-13.27 13.27-13.27 7.33 0 13.26 5.94 13.26 13.27 0 7.32-5.93 13.26-13.26 13.26s-13.27-5.94-13.27-13.26z"/>
</svg>