<svg xmlns="http://www.w3.org/2000/svg" clip-rule="evenodd" viewBox="0 0 250 250">\
  <g transform="matrix(1.31922 0 0 1.31923 16.79 9.89018)">
    <path fill="#3088d4" d="M160.555 105.431c-2.413 12.407-21.598 25.983-43.634 28.614-11.491 1.373-22.804 2.631-34.867 2.079-19.73-.904-35.298-4.71-35.298-4.71 0 1.921.119 3.75.355 5.46 2.565 19.47 19.308 20.637 35.166 21.181 16.007.548 30.258-3.947 30.258-3.947l.659 14.472s-11.197 6.011-31.14 7.116c-10.999.605-24.654-.276-40.56-4.485C6.999 162.08 1.066 125.31.159 88-.119 76.923.052 66.476.052 57.741c0-38.152 24.997-49.335 24.997-49.335C37.652 2.618 59.28.184 81.764 0h.552c22.484.184 44.125 2.618 56.729 8.406 0 0 24.996 11.183 24.996 49.335 0 0 .313 28.148-3.486 47.69"/>
    <clipPath id="a">
      <path d="M160.555 105.431c-2.413 12.407-21.598 25.983-43.634 28.614-11.491 1.373-22.804 2.631-34.867 2.079-19.73-.904-35.298-4.71-35.298-4.71 0 1.921.119 3.75.355 5.46 2.565 19.47 19.308 20.637 35.166 21.181 16.007.548 30.258-3.947 30.258-3.947l.659 14.472s-11.197 6.011-31.14 7.116c-10.999.605-24.654-.276-40.56-4.485C6.999 162.08 1.066 125.31.159 88-.119 76.923.052 66.476.052 57.741c0-38.152 24.997-49.335 24.997-49.335C37.652 2.618 59.28.184 81.764 0h.552c22.484.184 44.125 2.618 56.729 8.406 0 0 24.996 11.183 24.996 49.335 0 0 .313 28.148-3.486 47.69" clip-rule="nonzero"/>
    </clipPath>
    <g clip-path="url(#a)">
      <path fill="#fff" d="M96.49447816 39.60347852V-1.3598142h13.99312304v40.96329272c8.42164664 2.91078912 14.47067816 10.90029884 14.47067816 20.29972204 0 11.84782134-9.61932456 21.46706976-21.46723968 21.46706976-2.71372592 0-5.306168-.50787206-7.70152384-1.42507384l-15.68351656 24.0670715c.57609824 1.49329546.44723416 3.2215765-.48513536 4.6618107-1.54636896 2.37259634-4.73765 3.04723236-7.11026512 1.50087564-2.37261512-1.5539369-3.04725648-4.7376125-1.50088752-7.11020884.93994976-1.4402342 2.47873848-2.25131346 4.07058888-2.32711526L90.53640952 77.019247C85.36668584 73.10029394 82.0238 66.88454634 82.0238 59.90320056c0-9.3994232 6.04903152-17.38893292 14.47067816-20.29972204zm-61.83959792 8.89155114c0-5.55627194 4.50266256-10.05889886 10.05897848-10.05889886s10.05139824 4.50262692 10.05139824 10.05889886c0 5.54869176-4.49508232 10.05131868-10.05139824 10.05131868-5.55631592 0-10.05897848-4.50262692-10.05897848-10.05131868z"/>
    </g>
  </g>
</svg>