<svg xmlns="http://www.w3.org/2000/svg">
  <symbol id="mastodon-svg-logo" viewBox="0 0 618 176">
    <g transform="matrix(.88703 0 0 .88703 10.00013731 9.95002108)">
      <path fill="#3088d4" d="M160.555 105.431c-2.413 12.407-21.598 25.983-43.634 28.614-11.491 1.373-22.804 2.631-34.867 2.079-19.73-.904-35.298-4.71-35.298-4.71 0 1.921.119 3.75.355 5.46 2.565 19.47 19.308 20.637 35.166 21.181 16.007.548 30.258-3.947 30.258-3.947l.659 14.472s-11.197 6.011-31.14 7.116c-10.999.605-24.654-.276-40.56-4.485C6.999 162.08 1.066 125.31.159 88-.119 76.923.052 66.476.052 57.741c0-38.152 24.997-49.335 24.997-49.335C37.652 2.618 59.28.184 81.764 0h.552c22.484.184 44.125 2.618 56.729 8.406 0 0 24.996 11.183 24.996 49.335 0 0 .313 28.148-3.486 47.69"/>
      <clipPath id="a">
        <path d="M160.555 105.431c-2.413 12.407-21.598 25.983-43.634 28.614-11.491 1.373-22.804 2.631-34.867 2.079-19.73-.904-35.298-4.71-35.298-4.71 0 1.921.119 3.75.355 5.46 2.565 19.47 19.308 20.637 35.166 21.181 16.007.548 30.258-3.947 30.258-3.947l.659 14.472s-11.197 6.011-31.14 7.116c-10.999.605-24.654-.276-40.56-4.485C6.999 162.08 1.066 125.31.159 88-.119 76.923.052 66.476.052 57.741c0-38.152 24.997-49.335 24.997-49.335C37.652 2.618 59.28.184 81.764 0h.552c22.484.184 44.125 2.618 56.729 8.406 0 0 24.996 11.183 24.996 49.335 0 0 .313 28.148-3.486 47.69"/>
      </clipPath>
      <g clip-path="url(#a)">
        <path fill="#fff" d="M96.49447816 39.60347852V-1.3598142h13.99312304v40.96329272c8.42164664 2.91078912 14.47067816 10.90029884 14.47067816 20.29972204 0 11.84782134-9.61932456 21.46706976-21.46723968 21.46706976-2.71372592 0-5.306168-.50787206-7.70152384-1.42507384l-15.68351656 24.0670715c.57609824 1.49329546.44723416 3.2215765-.48513536 4.6618107-1.54636896 2.37259634-4.73765 3.04723236-7.11026512 1.50087564-2.37261512-1.5539369-3.04725648-4.7376125-1.50088752-7.11020884.93994976-1.4402342 2.47873848-2.25131346 4.07058888-2.32711526L90.53640952 77.019247C85.36668584 73.10029394 82.0238 66.88454634 82.0238 59.90320056c0-9.3994232 6.04903152-17.38893292 14.47067816-20.29972204zm-61.83959792 8.89155114c0-5.55627194 4.50266256-10.05889886 10.05897848-10.05889886s10.05139824 4.50262692 10.05139824 10.05889886c0 5.54869176-4.49508232 10.05131868-10.05139824 10.05131868-5.55631592 0-10.05897848-4.50262692-10.05897848-10.05131868z"/>
      </g>
    </g>
    <g fill="#fff">
      <path d="M199.076518 11.45567557c5.58000953 0 10.4200178.93000281 14.53002483 2.79000845 4.11000703 1.86000564 7.28001245 4.50001364 9.50001624 7.920024 2.2200038 3.42001037 3.3300057 7.47002264 3.3300057 12.15003682 0 4.620014-1.1100019 8.66002625-3.3300057 12.1100367-2.2200038 3.45001046-5.39000921 6.09001846-9.50001624 7.920024-4.11000702 1.83000555-8.9500153 2.7400083-14.53002484 2.7400083H186.3864963V74.4558665h-14.58002492V11.45567557h27.27004661zm-.8100014 33.75010228c4.3800075 0 7.71001319-.94000285 9.99001709-2.83000858 2.2800039-1.89000573 3.42000584-4.58001388 3.42000584-8.06002443 0-3.54001072-1.14000195-6.25001894-3.42000584-8.14002466-2.2800039-1.89000573-5.6100096-2.84000861-9.99001708-2.84000861h-11.8800203v21.87006628h11.8800203zM267.83663554 75.53586976c-6.42001098 0-12.2300209-1.39000421-17.42002978-4.18001266-5.19000887-2.79000846-9.27001585-6.66002019-12.24002093-11.61003519-2.97000507-4.950015-4.4500076-10.55003197-4.4500076-16.79005088s1.48000253-11.83003585 4.4500076-16.78005085c2.97000508-4.950015 7.05001206-8.82002673 12.24002093-11.61003519 5.19000887-2.79000845 11.03001885-4.1900127 17.51002993-4.1900127 5.46000934 0 10.39001776.96000291 14.8000253 2.88000873 4.41000754 1.92000582 8.12001388 4.68001418 11.12001901 8.2800251l-9.360016 8.64002618c-4.26000728-4.92001491-9.5400163-7.38002237-15.84002708-7.38002237-3.90000666 0-7.38001261.8600026-10.44001784 2.5700078-3.06000524 1.71000517-5.45000932 4.09001239-7.16001224 7.15002166-1.71000293 3.06000927-2.56000438 6.54001982-2.56000438 10.44003164 0 3.90001182.85000145 7.38002236 2.56000438 10.44003164 1.71000292 3.06000927 4.100007 5.45001651 7.16001224 7.1600217 3.06000523 1.71000518 6.54001118 2.56000775 10.44001784 2.56000775 6.30001077 0 11.5800198-2.49000754 15.84002708-7.47002263l9.360016 8.64002618c-3.00000513 3.6600111-6.72001149 6.45001955-11.16001908 8.37002536-4.44000759 1.92000582-9.39001605 2.88000873-14.85002538 2.88000873zM344.87676724 41.96576803H358.19679v25.56007746c-3.42000585 2.58000782-7.38001262 4.56001382-11.88002031 5.940018-4.5000077 1.38000418-9.03001544 2.07000627-13.59002323 2.07000627-6.54001118 0-12.42002124-1.39000421-17.64003016-4.18001266-5.22000892-2.79000846-9.32001593-6.66002019-12.290021-11.61003519-2.97000509-4.950015-4.45000762-10.55003197-4.45000762-16.79005088s1.48000253-11.83003585 4.45000761-16.78005085c2.97000508-4.950015 7.10001214-8.82002673 12.38002116-11.61003519 5.28000903-2.79000845 11.22001919-4.1900127 17.82003047-4.1900127 5.52000943 0 10.530018.93000282 15.0300257 2.79000846 4.50000768 1.86000564 8.28001415 4.56001382 11.34001938 8.10002455l-9.360016 8.64002618c-4.5000077-4.74001437-9.93001698-7.11002155-16.29002785-7.11002155-4.02000687 0-7.59001298.84000255-10.71001831 2.52000764-3.12000533 1.6800051-5.55000949 4.05001227-7.29001246 7.11002155-1.74000298 3.06000927-2.61000446 6.5700199-2.61000446 10.5300319 0 3.90001183.87000148 7.38002237 2.61000446 10.44003165 1.74000297 3.06000927 4.1500071 5.45001651 7.24001237 7.1600217 3.09000529 1.71000518 6.62001132 2.56000775 10.5800181 2.56000775 4.20000717 0 7.98001363-.90000272 11.34001938-2.70000818V41.96576803zM390.23684478 25.31571757c7.50001282 0 13.26002267 1.79000542 17.28002954 5.36001624 4.02000687 3.57001082 6.0300103 8.95002713 6.0300103 16.15004895v27.63008373h-13.14002246v-6.03001827c-2.6400045 4.50001363-7.56001292 6.75002045-14.76002523 6.75002045-3.72000636 0-6.95001188-.6300019-9.68001655-1.89000573-2.73000466-1.26000381-4.81000822-3.00000909-6.25001068-5.22001582-1.44000246-2.22000672-2.1600037-4.74001436-2.1600037-7.5600229 0-4.50001364 1.6900029-8.04002437 5.0800087-10.62003219 3.39000579-2.58000782 8.63001474-3.87001173 15.71002685-3.87001173h11.16001908c0-3.06000927-.9300016-5.4100164-2.79000477-7.0600214-1.86000318-1.650005-4.65000795-2.48000751-8.37001431-2.48000751-2.58000441 0-5.12000876.41000124-7.61001301 1.2200037-2.49000426.81000245-4.60000787 1.90000576-6.34001084 3.28000994l-5.04000862-9.81002973c2.64000452-1.86000564 5.80000992-3.30001 9.49001623-4.3200131 3.6900063-1.02000308 7.4900128-1.53000463 11.39001947-1.53000463zm-1.08000185 40.41012246c2.4000041 0 4.53000775-.55000166 6.39001093-1.66000503 1.86000318-1.11000336 3.18000543-2.75000833 3.96000677-4.91001488v-4.950015h-9.63001647c-5.76000984 0-8.64001477 1.89000573-8.64001477 5.67001718 0 1.80000546.7000012 3.2300098 2.11000361 4.28001298 1.41000241 1.05000318 3.35000573 1.57000475 5.81000993 1.57000475zM488.24701232 25.31571757c6.06001036 0 10.87001859 1.79000542 14.44002469 5.36001624 3.5700061 3.57001082 5.36000916 8.92002704 5.36000916 16.06004867V74.4558665h-14.040024V48.89578903c0-3.84001164-.80000137-6.7000203-2.39000408-8.59002603-1.59000272-1.89000573-3.85000659-2.84000861-6.79001161-2.84000861-3.30000564 0-5.9100101 1.07000324-7.83001339 3.2000097-1.92000328 2.13000645-2.88000492 5.29001603-2.88000492 9.49002876v24.30007364h-14.040024V48.89578903c0-7.6200231-3.06000523-11.43003464-9.1800157-11.43003464-3.24000553 0-5.82000994 1.07000324-7.74001323 3.2000097-1.92000328 2.13000645-2.88000492 5.29001603-2.88000492 9.49002876v24.30007364h-14.040024V26.03571975h13.41002292v5.58001691c1.80000308-2.04000618 4.00000684-3.6000109 6.6100113-4.68001418 2.61000447-1.08000327 5.48000937-1.62000491 8.6000147-1.62000491 3.42000585 0 6.51001113.68000206 9.27001585 2.03000615 2.76000472 1.3500041 4.98000851 3.31001003 6.66001139 5.89001785 1.98000338-2.52000764 4.48000766-4.47001355 7.51001284-5.85001773 3.03000517-1.38000418 6.35001085-2.07000627 9.950017-2.07000627zM568.61714972 50.42579367c0 .18000054-.09000016 1.44000436-.27000047 3.78001145h-36.63006261c.66000112 3.0000091 2.2200038 5.37001628 4.680008 7.11002155 2.4600042 1.74000527 5.52000943 2.6100079 9.18001569 2.6100079 2.5200043 0 4.75000812-.37000111 6.70001145-1.12000339 1.95000334-.75000227 3.77000645-1.94000588 5.45000932-3.56001078l7.47001277 8.10002454c-4.5600078 5.22001582-11.22001918 7.83002373-19.98003416 7.83002373-5.46000933 0-10.29001759-1.06000321-14.49002477-3.19000967-4.20000718-2.13000645-7.44001272-5.09001542-9.72001661-8.87002688-2.2800039-3.78001145-3.42000585-8.07002445-3.42000585-12.870039 0-4.74001436 1.12000192-9.0100273 3.37000576-12.82003885 2.25000385-3.81001155 5.34000913-6.78002055 9.27001585-8.910027 3.93000672-2.13000646 8.33001424-3.2000097 13.19002255-3.2000097 4.7400081 0 9.03001543 1.0200031 12.870022 3.06000927 3.84000656 2.04000619 6.8500117 4.97001506 9.04001545 8.78002661 2.19000374 3.81001155 3.29000563 8.23002494 3.29000563 13.27004022zm-25.11004293-14.49004392c-3.18000544 0-5.85001.90000273-8.0100137 2.70000819-2.16000369 1.80000545-3.48000594 4.2600129-3.96000676 7.38002236h23.85004077c-.48000082-3.06000927-1.80000308-5.50001667-3.96000677-7.33002221-2.1600037-1.83000555-4.8000082-2.75000834-7.92001354-2.75000834zM591.38718864 32.42573912c1.68000287-2.3400071 3.94000674-4.11001246 6.7900116-5.3100161 2.85000488-1.20000363 6.1400105-1.80000545 9.86001686-1.80000545v12.96003928c-1.56000266-.12000037-2.61000446-.18000055-3.15000538-.18000055-4.02000687 0-7.17001226 1.13000342-9.45001616 3.38001024-2.2800039 2.25000682-3.42000584 5.62001703-3.42000584 10.12003067V74.4558665h-14.040024V26.03571975h13.41002292v6.39001937zM192.50650676 165.53614251c-4.98000851 0-9.80001675-.67000203-14.4500247-2.02000612-4.65000795-1.3500041-8.38001432-3.11000943-11.20001915-5.27001597l4.95000847-10.98003328c2.70000461 1.980006 5.9100101 3.57001082 9.63001646 4.77001446 3.72000636 1.20000363 7.44001272 1.80000545 11.16001908 1.80000545 4.14000707 0 7.2000123-.61000185 9.18001569-1.84000557 1.98000338-1.23000373 2.97000508-2.8700087 2.97000508-4.91001488 0-1.50000455-.59000101-2.7400083-1.76000301-3.7300113-1.170002-.990003-2.67000457-1.79000543-4.5000077-2.39000725-1.83000312-.60000182-4.30000735-1.26000382-7.42001268-1.980006-4.8000082-1.14000345-8.73001492-2.28000691-11.79002015-3.42001036-3.06000523-1.14000346-5.69000973-2.970009-7.88001347-5.49001664-2.19000375-2.52000764-3.28000561-5.88001782-3.28000561-10.08003055 0-3.6600111.9900017-6.97002112 2.97000508-9.94003012 1.98000338-2.970009 4.96000847-5.33001616 8.9500153-7.07002143 3.99000682-1.74000527 8.87001516-2.6100079 14.630025-2.6100079 4.02000688 0 7.9500136.48000145 11.79002016 1.44000436 3.84000656.9600029 7.2000123 2.34000709 10.08001723 4.14001254l-4.5000077 11.07003355c-5.82000994-3.30001-11.64001989-4.950015-17.46002984-4.950015-4.08000697 0-7.10001214.660002-9.05001547 1.980006-1.95000333 1.320004-2.920005 3.06000927-2.920005 5.22001582 0 2.16000654 1.12000192 3.77001142 3.37000577 4.8200146 2.25000385 1.05000319 5.69000973 2.0800063 10.31001762 3.1000094 4.80000821 1.14000345 8.73001493 2.2800069 11.79002016 3.42001036s5.6800097 2.94000891 7.87001345 5.40001637c2.19000375 2.46000745 3.29000563 5.79001755 3.29000563 9.99003027 0 3.60001091-1.01000173 6.89002088-3.02000517 9.86002989-2.01000343 2.970009-5.02000858 5.32001612-9.04001545 7.0600214-4.02000687 1.74000526-8.91001523 2.6100079-14.67002508 2.6100079zM251.27660723 165.17614142c-5.10000872 0-9.68001655-1.06000321-13.73002347-3.19000967-4.05000693-2.13000645-7.21001233-5.09001542-9.49001623-8.87002688-2.2800039-3.78001145-3.42000584-8.07002446-3.42000584-12.870039 0-4.80001455 1.14000195-9.09002755 3.42000584-12.870039 2.2800039-3.78001146 5.4400093-6.7300204 9.49001623-8.86002686 4.05000692-2.13000645 8.63001475-3.2000097 13.73002347-3.2000097s9.66001651 1.07000325 13.68002338 3.2000097c4.02000688 2.13000646 7.17001226 5.0800154 9.45001616 8.86002686 2.2800039 3.78001145 3.42000585 8.07002445 3.42000585 12.870039 0 4.80001454-1.14000195 9.09002755-3.42000585 12.870039-2.2800039 3.78001146-5.43000928 6.74002043-9.45001616 8.87002688-4.02000687 2.13000646-8.58001466 3.19000967-13.68002338 3.19000967zm0-11.52003491c3.60000615 0 6.5500112-1.21000367 8.86001514-3.64001103 2.31000395-2.43000737 3.47000594-5.69001725 3.47000594-9.77002961 0-4.08001237-1.16000199-7.33002222-3.47000594-9.76002958-2.31000394-2.43000736-5.26000899-3.65001106-8.86001514-3.65001106-3.60000616 0-6.57001123 1.2200037-8.91001523 3.65001106-2.340004 2.43000736-3.510006 5.68001721-3.510006 9.76002958 0 4.08001236 1.170002 7.34002224 3.510006 9.7700296 2.340004 2.43000737 5.31000907 3.64001104 8.91001523 3.64001104zM310.58670862 165.17614142c-5.16000882 0-9.80001675-1.06000321-13.91002378-3.19000967-4.11000703-2.13000645-7.32001251-5.09001542-9.63001646-8.87002688-2.31000395-3.78001145-3.46000592-8.07002446-3.46000592-12.870039 0-4.80001455 1.15000197-9.09002755 3.46000592-12.870039 2.31000395-3.78001146 5.52000943-6.7300204 9.63001646-8.86002686 4.11000703-2.13000645 8.75001496-3.2000097 13.91002378-3.2000097 5.10000872 0 9.55001632 1.07000325 13.36002284 3.2000097 3.81000651 2.13000646 6.59001126 5.17001567 8.33001424 9.13002767l-10.89001862 5.85001773c-2.5200043-4.44001345-6.15001051-6.66002018-10.89001862-6.66002018-3.66000625 0-6.69001143 1.20000364-9.09001553 3.6000109-2.4000041 2.40000728-3.60000616 5.6700172-3.60000616 9.81002974 0 4.14001254 1.20000205 7.41002245 3.60000616 9.81002973 2.4000041 2.40000727 5.43000928 3.6000109 9.09001553 3.6000109 4.80000821 0 8.43001442-2.22000672 10.89001862-6.66002018l10.89001862 5.940018c-1.74000298 3.84001164-4.52000773 6.84002073-8.33001424 9.00002728-3.81000652 2.16000655-8.26001412 3.24000982-13.36002284 3.24000982zM340.37675954 116.0359925h14.040024v48.42014674h-14.040024V116.0359925zm7.020012-6.75002046c-2.5800044 0-4.680008-.75000227-6.30001077-2.25000682-1.62000276-1.50000454-2.43000415-3.36001018-2.43000415-5.5800169 0-2.22000673.81000139-4.08001237 2.43000415-5.58001692 1.62000277-1.50000454 3.72000636-2.25000682 6.30001077-2.25000682s4.680008.72000219 6.30001077 2.16000655c1.62000277 1.44000436 2.43000416 3.24000982 2.43000416 5.40001637 0 2.34000709-.81000139 4.28001297-2.43000416 5.8100176-1.62000277 1.53000464-3.72000636 2.29000694-6.30001077 2.29000694zM386.99683924 115.31599032c7.50001282 0 13.26002267 1.79000542 17.28002954 5.36001624 4.02000687 3.57001082 6.0300103 8.95002712 6.0300103 16.15004894v27.63008374h-13.14002246v-6.03001828c-2.6400045 4.50001364-7.56001292 6.75002046-14.76002523 6.75002046-3.72000636 0-6.95001188-.63000191-9.68001654-1.89000573-2.73000467-1.26000382-4.81000823-3.00000909-6.25001069-5.22001582-1.44000246-2.22000673-2.1600037-4.74001436-2.1600037-7.5600229 0-4.50001365 1.6900029-8.04002437 5.0800087-10.6200322 3.39000579-2.58000781 8.63001475-3.87001172 15.71002685-3.87001172h11.16001908c0-3.06000927-.9300016-5.4100164-2.79000477-7.0600214-1.86000318-1.650005-4.65000795-2.48000751-8.37001431-2.48000751-2.58000441 0-5.12000875.41000124-7.61001301 1.2200037-2.49000426.81000245-4.60000786 1.90000575-6.34001084 3.28000994l-5.04000861-9.81002973c2.6400045-1.86000564 5.80000991-3.30001 9.49001622-4.3200131 3.6900063-1.02000309 7.4900128-1.53000463 11.39001947-1.53000463zm-1.08000185 40.41012246c2.4000041 0 4.53000775-.55000167 6.39001093-1.66000503 1.86000318-1.11000336 3.18000543-2.75000833 3.96000677-4.91001488v-4.950015h-9.63001647c-5.76000984 0-8.64001477 1.89000573-8.64001477 5.67001718 0 1.80000546.7000012 3.2300098 2.11000361 4.28001297 1.41000241 1.05000319 3.35000573 1.57000476 5.81000993 1.57000476zM422.99690078 97.67593686h14.040024v66.78020238h-14.040024z"/>
    </g>
  </symbol>
</svg>
