<?xml version="1.0" encoding="UTF-8" standalone="no"?>
<!DOCTYPE svg PUBLIC "-//W3C//DTD SVG 1.1//EN" "http://www.w3.org/Graphics/SVG/1.1/DTD/svg11.dtd">
<svg width="100%" height="100%" viewBox="0 0 250 250" version="1.1" xmlns="http://www.w3.org/2000/svg" xmlns:xlink="http://www.w3.org/1999/xlink" xml:space="preserve" xmlns:serif="http://www.serif.com/" style="fill-rule:evenodd;clip-rule:evenodd;stroke-linejoin:round;stroke-miterlimit:1.41421;">
    <g transform="matrix(1,0,0,1,-1200,-1680)">
        <g id="logo" transform="matrix(1,0,0,1,-2733,1680)">
            <rect x="3933" y="0" width="250" height="250" style="fill:none;"/>
            <g transform="matrix(1.31922,0,0,1.31923,3949.79,9.89018)">
                <path d="M160.555,105.431C158.142,117.838 138.957,131.414 116.921,134.045C105.43,135.418 94.117,136.676 82.054,136.124C62.324,135.22 46.756,131.414 46.756,131.414C46.756,133.335 46.875,135.164 47.111,136.874C49.676,156.344 66.419,157.511 82.277,158.055C98.284,158.603 112.535,154.108 112.535,154.108L113.194,168.58C113.194,168.58 101.997,174.591 82.054,175.696C71.055,176.301 57.4,175.42 41.494,171.211C6.999,162.08 1.066,125.31 0.159,88C-0.119,76.923 0.052,66.476 0.052,57.741C0.052,19.589 25.049,8.406 25.049,8.406C37.652,2.618 59.28,0.184 81.764,0L82.316,0C104.8,0.184 126.441,2.618 139.045,8.406C139.045,8.406 164.041,19.589 164.041,57.741C164.041,57.741 164.354,85.889 160.555,105.431" style="fill:rgb(48,136,212);fill-rule:nonzero;"/>
                <clipPath id="_clip1">
                    <path d="M160.555,105.431C158.142,117.838 138.957,131.414 116.921,134.045C105.43,135.418 94.117,136.676 82.054,136.124C62.324,135.22 46.756,131.414 46.756,131.414C46.756,133.335 46.875,135.164 47.111,136.874C49.676,156.344 66.419,157.511 82.277,158.055C98.284,158.603 112.535,154.108 112.535,154.108L113.194,168.58C113.194,168.58 101.997,174.591 82.054,175.696C71.055,176.301 57.4,175.42 41.494,171.211C6.999,162.08 1.066,125.31 0.159,88C-0.119,76.923 0.052,66.476 0.052,57.741C0.052,19.589 25.049,8.406 25.049,8.406C37.652,2.618 59.28,0.184 81.764,0L82.316,0C104.8,0.184 126.441,2.618 139.045,8.406C139.045,8.406 164.041,19.589 164.041,57.741C164.041,57.741 164.354,85.889 160.555,105.431" clip-rule="nonzero"/>
                </clipPath>
                <g clip-path="url(#_clip1)">
                    <g transform="matrix(0.758024,0,0,0.758018,-922.358,-1280.97)">
                        <path d="M1344.09,1742.14L1344.09,1688.1L1362.55,1688.1L1362.55,1742.14C1373.66,1745.98 1381.64,1756.52 1381.64,1768.92C1381.64,1784.55 1368.95,1797.24 1353.32,1797.24C1349.74,1797.24 1346.32,1796.57 1343.16,1795.36L1322.47,1827.11C1323.23,1829.08 1323.06,1831.36 1321.83,1833.26C1319.79,1836.39 1315.58,1837.28 1312.45,1835.24C1309.32,1833.19 1308.43,1828.99 1310.47,1825.86C1311.71,1823.96 1313.74,1822.89 1315.84,1822.79L1336.23,1791.5C1329.41,1786.33 1325,1778.13 1325,1768.92C1325,1756.52 1332.98,1745.98 1344.09,1742.14ZM1262.51,1753.87C1262.51,1746.54 1268.45,1740.6 1275.78,1740.6C1283.11,1740.6 1289.04,1746.54 1289.04,1753.87C1289.04,1761.19 1283.11,1767.13 1275.78,1767.13C1268.45,1767.13 1262.51,1761.19 1262.51,1753.87Z" style="fill:white;"/>
                    </g>
                </g>
            </g>
        </g>
    </g>
</svg>
